<svg height="24" viewBox="0 0 24 24" width="24" xmlns="http://www.w3.org/2000/svg"><g fill-rule="evenodd"><path d="m0 22c0 1.10457.895431 2 2 2h20c1.10457 0 2-.89543 2-2v-20c0-1.10457-.89543-2-2-2h-20c-1.104569 0-2 .89543-2 2z"/><path d="m5.164273 19.917723c2.214872-2.561953 3.577614-4.132812 4.457265-5.143674 1.599365-1.83793 1.599365-1.83793 1.893361-1.55298.293995.284952.293995.284952 2.572736-1.993788l2.278742-2.27874-1.128506-1.128505-1.128505-1.128508-.937711.973355c-.515741.53534-1.54209 1.581203-2.280775 2.32414-1.343066 1.350788-1.343066 1.350788-1.064448 1.629407.278619.278618.278619.278618-.975956 1.487865-.690017.665084-2.106151 2.02496-3.146963 3.021944-1.040813.996984-1.927862 1.825977-1.97122 1.842209-.043359.016229-.219406-.262852-.391217-.620182-.17181-.357327-.411389-.961796-.5324-1.343262-.121009-.381466-.279323-1.059235-.351808-1.506152-.105011-.64747-.131762-1.78472-.131652-5.596831.000084-2.932832.03459-4.908284.089167-5.10476.048966-.176281.179069-.454126.289118-.617424.110049-.163301.381098-.408821.60233-.545599.333456-.206163.590729-.271339 1.504481-.381145.606232-.072852 1.489733-.230572 1.963335-.350485s1.19124-.352751 1.594751-.517416c.403509-.164665 1.227495-.544146 1.831076-.843291 1.015291-.503192 1.141953-.543901 1.692388-.543901.544597 0 .680456.04232 1.604793.499863.555405.274925 1.388581.656377 1.851502.847681.462921.191303 1.202525.441591 1.643567.556204.441042.114612 1.218481.253538 1.727646.308733.509163.055189 1.099386.162956 1.311605.239479.21222.076522.52746.26346.700537.415424.173077.151962.387285.436113.476023.631443.149896.329958.16148.710979.163286 5.37144.001606 4.136729-.0221 5.15418-.135197 5.802729-.07543.432543-.257391 1.145437-.40436 1.584208-.146968.438768-.433135 1.109221-.635927 1.489893-.202791.380671-.614591 1.003077-.915107 1.383125-.30052.380047-.827136.927307-1.170264 1.216132-.343124.288827-.83579.667091-1.094806.840583-.259016.173495-1.088907.707627-1.844198 1.186962-.755291.479338-1.649085 1.032628-1.986209 1.229533-.516357.301593-.704842.362692-1.196062.387716-.551622.028103-.618992.008892-1.24759-.35573-.365463-.211989-1.043232-.62504-1.506153-.917887-.46292-.292848-1.31008-.822262-1.882578-1.176473-.572499-.354212-1.299024-.864365-1.614501-1.133677zm8.560097-3.084582c.105851.000183.358687-.129242.561858-.287609.203173-.158369.81427-.757749 1.357996-1.33196.543724-.574212 1.662848-1.717358 2.486937-2.54033 1.175405-1.17381 1.507166-1.556432 1.539282-1.775248.037447-.255139-.035019-.354897-.849211-1.16909-.85006-.850061-.904776-.888449-1.214735-.852262-.290594.033921-.616026.330169-3.107704 2.828984-2.672309 2.679962-2.783122 2.804475-2.783122 3.127238 0 .296899.074996.414007.64233 1.003013.353282.366779.761936.741134.908121.831901s.352398.16518.458248.165363zm-5.354804-5.519659c.355492-.047683.526956-.201696 3.049917-2.739544 2.325238-2.338956 2.681521-2.733118 2.736789-3.027721.044159-.235386.022006-.423513-.07263-.616779-.074894-.152949-.39039-.527436-.701105-.832196-.310715-.304763-.691675-.601951-.846581-.660423-.23328-.088051-.331696-.081697-.573114.03702-.160309.078827-1.407795 1.260338-2.772192 2.62557-1.364397 1.365231-2.573439 2.61458-2.686758 2.776325-.144408.206114-.195795.38287-.171795.590931.027278.236499.199602.459565.84752 1.097099.812343.799316.813714.800182 1.189949.749718z" fill="#0a43a3"/></g></svg>