<?xml version="1.0" encoding="UTF-8"?>
<!-- Generated by Pixelmator Pro 3.7 -->
<svg width="177" height="24" viewBox="0 0 177 24" xmlns="http://www.w3.org/2000/svg">
    <g id="40635">
        <path id="Path" fill="#1e40af" stroke="none" d="M 7.186158 0.955088 C 7.152056 1.010502 5.481094 4.045515 3.473382 7.702873 L -0.179716 14.352621 L 0.208186 14.723474 C 0.813483 15.303194 1.764056 16.032108 2.390667 16.394436 L 2.586749 16.505264 L 7.245835 16.505264 L 11.904921 16.505264 L 12.390863 16.181301 C 12.65941 16.006533 13.064363 15.712409 13.290283 15.529116 C 13.703762 15.196628 14.620234 14.38246 14.620234 14.348359 C 14.620234 14.33557 14.594657 14.284419 14.560556 14.233266 C 14.419889 14.011609 7.501594 1.402668 7.501594 1.368563 C 7.501594 1.34725 9.415526 1.3302 12.211831 1.3302 L 16.92207 1.3302 L 16.92207 1.49218 C 16.92207 1.581697 16.7132 4.284224 16.453176 7.494003 C 16.197416 10.703786 15.920343 14.203429 15.835092 15.269093 C 15.754102 16.334757 15.664584 17.379108 15.639009 17.592243 C 15.506867 18.66217 15.055024 19.43371 14.360211 19.774723 L 14.078876 19.91539 L 10.182805 19.91539 L 6.286736 19.91539 L 6.073604 20.017694 C 5.792268 20.145575 5.562085 20.405598 5.481094 20.686932 C 5.395841 20.964005 5.395841 20.955479 5.481094 21.232552 C 5.557822 21.492575 5.775218 21.756859 6.026714 21.889 L 6.201484 21.98278 L 17.433588 21.995569 C 29.88055 22.004093 28.878824 22.029669 29.232624 21.72702 C 29.462811 21.526676 29.586428 21.258127 29.586428 20.968267 C 29.586428 20.576103 29.403131 20.269192 29.032282 20.051794 L 28.836201 19.936703 L 24.76536 19.91539 L 20.694523 19.894077 L 20.438763 19.766197 C 19.778049 19.43371 19.321945 18.649382 19.185541 17.613554 C 19.159966 17.41321 19.053398 16.13015 18.946833 14.757574 C 18.836002 13.384997 18.554667 9.81289 18.315958 6.81624 C 18.072987 3.819593 17.885429 1.360039 17.898218 1.34725 C 17.906744 1.338728 20.025284 1.3302 22.604193 1.3302 C 27.050146 1.3302 27.288855 1.334461 27.259016 1.402668 C 27.246227 1.445292 25.639206 4.373737 23.686909 7.911743 L 20.144638 14.348359 L 20.506964 14.685109 C 22.356958 16.415747 24.339094 17.451574 26.376646 17.745697 C 26.905216 17.822424 27.122608 17.835213 27.770535 17.8139 C 28.593225 17.788324 29.023754 17.724384 29.782509 17.528303 C 31.444946 17.089249 33.282154 16.023582 34.624889 14.71921 L 35.000004 14.352621 L 34.305191 13.095138 C 33.921551 12.404588 32.246326 9.369575 30.583889 6.347349 L 27.561665 0.861309 L 17.403749 0.861309 L 7.245835 0.861309 L 7.186158 0.955088 Z M 10.545133 7.869118 C 12.365288 11.172677 13.852956 13.88373 13.852956 13.892255 C 13.852956 13.90078 10.869094 13.905042 7.220259 13.905042 C 3.571424 13.905042 0.596088 13.887991 0.604613 13.870941 C 0.64724 13.764375 7.215995 1.841719 7.224521 1.850246 C 7.233046 1.85877 8.724977 4.565556 10.545133 7.869118 Z M 30.946217 7.950108 L 34.219936 13.88373 L 27.587242 13.896517 C 23.942669 13.90078 20.950281 13.896517 20.941757 13.887991 C 20.933231 13.879466 22.416636 11.15989 24.236792 7.852068 C 27.344267 2.208307 27.557404 1.837458 27.612816 1.92271 C 27.646915 1.969599 29.147373 4.684914 30.946217 7.950108 Z"/>
    </g>
    <text id="Alexs" xml:space="preserve" x="37" y="18" font-family="Helvetica" font-size="18" font-weight="700" fill="#ffffff">Alex's</text>
    <text id="Law-Notes" xml:space="preserve" x="92" y="18" font-family="Helvetica" font-size="18" fill="#d5d5d5" letter-spacing="-0.18">Law Notes</text>
</svg>
