<?xml version="1.0" encoding="UTF-8"?>
<!-- Generated by Pixelmator Pro 3.7 -->
<svg width="200" height="24" viewBox="0 0 200 24" xmlns="http://www.w3.org/2000/svg">
    <g id="40635">
        <path id="Path" fill="#1e40af" stroke="none" visibility="hidden" d="M 18.186159 0.955088 C 18.152056 1.010502 16.481094 4.045515 14.473382 7.702873 L 10.820284 14.352621 L 11.208186 14.723474 C 11.813483 15.303194 12.764056 16.032108 13.390667 16.394436 L 13.586749 16.505264 L 18.245834 16.505264 L 22.904921 16.505264 L 23.390863 16.181301 C 23.65941 16.006533 24.064363 15.712409 24.290283 15.529116 C 24.703762 15.196628 25.620234 14.38246 25.620234 14.348359 C 25.620234 14.33557 25.594658 14.284419 25.560556 14.233266 C 25.419889 14.011609 18.501595 1.402668 18.501595 1.368563 C 18.501595 1.34725 20.415527 1.3302 23.211832 1.3302 L 27.92207 1.3302 L 27.92207 1.49218 C 27.92207 1.581697 27.7132 4.284224 27.453176 7.494003 C 27.197416 10.703786 26.920343 14.203429 26.835093 15.269093 C 26.754103 16.334757 26.664585 17.379108 26.639009 17.592243 C 26.506868 18.66217 26.055025 19.43371 25.360212 19.774723 L 25.078876 19.91539 L 21.182806 19.91539 L 17.286736 19.91539 L 17.073605 20.017694 C 16.792269 20.145575 16.562086 20.405598 16.481094 20.686932 C 16.395842 20.964005 16.395842 20.955479 16.481094 21.232552 C 16.557823 21.492575 16.775219 21.756859 17.026714 21.889 L 17.201485 21.98278 L 28.433588 21.995569 C 40.88055 22.004093 39.878826 22.029669 40.232624 21.72702 C 40.462811 21.526676 40.58643 21.258127 40.58643 20.968267 C 40.58643 20.576103 40.403133 20.269192 40.032284 20.051794 L 39.836201 19.936703 L 35.765362 19.91539 L 31.694523 19.894077 L 31.438763 19.766197 C 30.778049 19.43371 30.321945 18.649382 30.185541 17.613554 C 30.159966 17.41321 30.053398 16.13015 29.946833 14.757574 C 29.836002 13.384997 29.554667 9.81289 29.315958 6.81624 C 29.072987 3.819593 28.885429 1.360039 28.898218 1.34725 C 28.906744 1.338728 31.025284 1.3302 33.604195 1.3302 C 38.050148 1.3302 38.288857 1.334461 38.259018 1.402668 C 38.246227 1.445292 36.639206 4.373737 34.686909 7.911743 L 31.144638 14.348359 L 31.506964 14.685109 C 33.35696 16.415747 35.339096 17.451574 37.376648 17.745697 C 37.905216 17.822424 38.122608 17.835213 38.770535 17.8139 C 39.593227 17.788324 40.023754 17.724384 40.782509 17.528303 C 42.444946 17.089249 44.282154 16.023582 45.624889 14.71921 L 46.000004 14.352621 L 45.305191 13.095138 C 44.921551 12.404588 43.246326 9.369575 41.583889 6.347349 L 38.561665 0.861309 L 28.403749 0.861309 L 18.245834 0.861309 L 18.186159 0.955088 Z M 21.545134 7.869118 C 23.365288 11.172677 24.852957 13.88373 24.852957 13.892255 C 24.852957 13.90078 21.869095 13.905042 18.220259 13.905042 C 14.571424 13.905042 11.596088 13.887991 11.604613 13.870941 C 11.64724 13.764375 18.215996 1.841719 18.224522 1.850246 C 18.233046 1.85877 19.724977 4.565556 21.545134 7.869118 Z M 41.946217 7.950108 L 45.219936 13.88373 L 38.587242 13.896517 C 34.942669 13.90078 31.950281 13.896517 31.941757 13.887991 C 31.933231 13.879466 33.416637 11.15989 35.236794 7.852068 C 38.344269 2.208307 38.557404 1.837458 38.612816 1.92271 C 38.646915 1.969599 40.147373 4.684914 41.946217 7.950108 Z"/>
    </g>
    <path id="Shape-copy-3" fill="#bdbdbd" fill-rule="evenodd" stroke="none" d="M 110.96402 20.893999 C 109.821411 20.941723 108.491798 20.876526 108.009331 20.749126 C 107.526863 20.621725 106.590973 20.23929 105.929573 19.899269 C 105.268181 19.559246 104.140854 18.62907 103.4244 17.832209 C 102.639503 16.959204 101.926239 15.777919 101.629791 14.86001 C 101.359192 14.022173 101.137802 12.454134 101.137802 11.375485 C 101.137802 10.296847 101.357727 8.765859 101.626518 7.973299 C 101.970451 6.959223 102.641846 6.007717 103.892662 4.761745 C 105.302399 3.35747 106.025787 2.880571 107.389557 2.456392 C 108.667877 2.058788 109.617065 1.964163 111.089149 2.087584 C 112.352036 2.193462 113.594101 2.519543 114.518234 2.987831 C 115.31517 3.391674 116.574615 4.397675 117.317017 5.223394 C 118.159958 6.160952 118.847076 7.296558 119.146873 8.247608 C 119.480225 9.305124 119.592857 10.482038 119.515465 12.09888 C 119.435928 13.760295 119.2117 14.820292 118.732666 15.799442 C 118.363441 16.554157 117.564865 17.683231 116.958069 18.3085 C 116.351273 18.933762 115.221802 19.751772 114.448143 20.126291 C 113.474579 20.597588 112.401886 20.833954 110.96402 20.893999 Z M 126.839638 20.996004 C 125.911209 21.003151 125.188026 20.800203 124.507347 20.341492 C 123.964714 19.975815 123.22155 19.232655 122.855873 18.690018 C 122.229652 17.760767 122.191002 17.416998 122.191002 12.775764 C 122.191002 7.84811 122.191002 7.84811 122.191002 7.84811 L 124.530251 7.84811 C 124.530251 7.84811 124.530251 8.112149 124.530251 12.248714 C 124.530251 15.524981 124.638786 16.859215 124.95507 17.470833 C 125.188713 17.922657 125.772148 18.454819 126.251572 18.653404 C 126.73101 18.851997 127.508217 18.929926 127.978706 18.826591 C 128.449188 18.723257 129.179764 18.277956 129.602188 17.837036 C 130.093063 17.324684 130.477219 16.471212 130.666702 15.472092 C 130.829758 14.612285 130.963165 12.545154 130.963165 10.878464 C 130.963165 7.878416 130.963165 7.84811 130.963165 7.84811 L 133.302414 7.84811 C 133.302414 7.84811 133.302414 7.84811 133.302414 14.281035 C 133.302414 20.392311 133.302414 20.713959 133.302414 20.713959 L 130.963165 20.713959 C 130.963165 20.713959 130.963165 20.673721 130.963165 19.78577 C 130.963165 18.857582 130.963165 18.857582 130.209991 19.566467 C 129.795746 19.956352 129.170731 20.435162 128.82106 20.630497 C 128.471405 20.825823 127.579758 20.990301 126.839638 20.996004 Z M 176.60791 20.999939 C 176.028824 20.996414 175.028702 20.749313 174.385406 20.45084 C 173.742111 20.152357 172.793732 19.463953 172.277908 18.921038 C 171.76207 18.378132 171.137054 17.358646 170.888977 16.655527 C 170.6409 15.952409 170.437927 14.824994 170.437927 14.150154 C 170.437927 13.475323 170.645004 12.315435 170.898117 11.572624 C 171.187271 10.723963 171.829407 9.787797 172.626038 9.053499 C 173.354156 8.382353 174.425201 7.741833 175.142227 7.548754 C 175.828873 7.363859 176.942154 7.29529 177.616196 7.396368 C 178.290237 7.497444 179.431992 7.95447 180.153397 8.411979 C 181.019257 8.961087 181.678162 9.683998 182.09201 10.538916 C 182.48584 11.352463 182.718964 12.397683 182.718964 13.349938 C 182.718964 14.865847 182.718964 14.865847 177.894272 14.865847 C 173.085495 14.865847 173.06958 14.868014 173.070663 15.523759 C 173.071274 15.885608 173.337326 16.617237 173.66188 17.149586 C 173.98645 17.681936 174.705444 18.306957 175.259644 18.538513 C 175.813828 18.770069 176.567535 18.959034 176.93457 18.958435 C 177.301575 18.957829 178.032196 18.694969 178.558151 18.374294 C 179.084091 18.053619 179.664444 17.46199 179.847809 17.059557 C 180.119217 16.46385 180.379715 16.327873 180.379715 16.327873 L 182.426559 16.327873 C 182.426559 16.327873 182.426559 16.480198 182.426559 16.781002 C 182.426559 17.030226 182.236938 17.600813 182.005188 18.048979 C 181.773422 18.497143 181.148407 19.192436 180.616257 19.594076 C 180.084106 19.995724 179.201416 20.477798 178.654755 20.665352 C 178.108078 20.852907 177.186996 21.003473 176.60791 20.999939 Z M 189.950073 20.981236 C 189.269836 20.967403 188.356873 20.84866 187.921265 20.71735 C 187.485657 20.58604 186.727066 20.192226 186.235504 19.842213 C 185.743958 19.492195 185.146408 18.827984 184.907593 18.366182 C 184.668793 17.904381 184.473404 17.322632 184.473404 17.073406 C 184.473404 16.74951 184.7686 16.620279 185.50853 16.620279 C 186.3358 16.620279 186.767075 16.855137 187.656296 17.789902 C 188.59433 18.775978 188.9534 18.959524 189.944397 18.959524 C 190.690811 18.959524 191.401077 18.738329 191.890305 18.353493 C 192.33313 18.005165 192.660751 17.454512 192.660751 17.058548 C 192.660751 16.679657 192.463303 16.172186 192.221954 15.93084 C 191.980606 15.689505 191.026627 15.342505 190.102005 15.159733 C 189.177399 14.976971 187.997543 14.69571 187.480118 14.534721 C 186.962723 14.373724 186.206116 13.845942 185.798782 13.361869 C 185.25824 12.719457 185.058212 12.143043 185.058212 11.227775 C 185.058212 10.398906 185.265213 9.710662 185.668839 9.197524 C 186.004684 8.77057 186.6297 8.244083 187.05777 8.027554 C 187.48584 7.811026 188.31636 7.546988 188.903397 7.440805 C 189.490448 7.334625 190.608841 7.390745 191.388748 7.565521 C 192.168625 7.740297 193.114929 8.171446 193.491608 8.523621 C 193.868286 8.875796 194.279587 9.361306 194.405624 9.602545 C 194.531647 9.843783 194.7258 10.337217 194.837097 10.699066 C 195.026138 11.313851 194.953156 11.356978 193.723587 11.356978 C 192.667267 11.356978 192.371384 11.242347 192.223282 10.775737 C 192.121811 10.45606 191.754715 9.995519 191.407501 9.752317 C 191.060287 9.509125 190.362686 9.310139 189.857269 9.310139 C 189.351868 9.310139 188.591644 9.58285 188.167908 9.91617 C 187.733688 10.257718 187.397461 10.816347 187.397461 11.196195 C 187.397461 11.566886 187.571045 12.014258 187.783234 12.190346 C 187.995407 12.366433 189.080963 12.715932 190.195587 12.966994 C 191.310181 13.218058 192.588455 13.568448 193.036163 13.745633 C 193.483902 13.922818 194.108902 14.396684 194.425095 14.798661 C 194.814911 15.29421 195 15.98033 195 16.929684 C 195 17.996027 194.825974 18.536657 194.270081 19.197309 C 193.868622 19.674414 193.010666 20.276634 192.36351 20.535568 C 191.716385 20.79451 190.630341 20.995058 189.950073 20.981236 Z M 141.562881 20.702251 C 140.638138 20.695808 139.522995 20.495966 139.084778 20.258154 C 138.646561 20.020344 138.153122 19.573721 137.988266 19.265663 C 137.823395 18.957615 137.688507 16.864159 137.688507 14.613552 C 137.688507 11.283413 137.396088 9.89495 137.396088 9.89495 C 135.349258 9.89495 135.349258 9.89495 135.349258 9.89495 L 135.349258 7.84811 L 137.396088 7.84811 C 137.396088 7.84811 137.396088 7.84811 137.396088 5.801271 C 137.396088 3.754433 137.396088 3.754433 137.396088 3.754433 L 140.02774 3.754433 C 140.02774 3.754433 140.02774 3.856777 140.02774 5.801271 C 140.02774 7.84811 140.02774 7.84811 140.02774 7.84811 L 143.536606 7.84811 L 143.536606 9.89495 L 140.02774 9.89495 C 140.02774 9.89495 140.02774 9.89495 140.02774 13.783942 C 140.02774 16.41884 140.1409 17.786091 140.378632 18.023823 C 140.571609 18.216812 141.295334 18.374714 141.986862 18.374714 C 143.00531 18.374714 143.244202 18.374714 143.244202 18.374714 L 143.244202 20.713959 C 143.244202 20.713959 143.244202 20.713959 141.562881 20.702251 Z M 145.875854 20.713959 C 145.875854 20.713959 145.875854 20.713959 145.875854 11.356978 C 145.875854 2 145.875854 2 145.875854 2 L 148.215103 2 C 148.215103 2 148.215103 2.561422 148.215103 11.356978 C 148.215103 19.684694 148.215103 20.713959 148.215103 20.713959 L 145.875854 20.713959 Z M 151.723969 20.713959 C 151.723969 20.713959 151.723969 20.713959 151.723969 14.281035 C 151.723969 7.84811 151.723969 7.84811 151.723969 7.84811 L 154.355621 7.84811 C 154.355621 7.84811 154.355621 8.169759 154.355621 14.281035 C 154.355621 20.32798 154.355621 20.713959 154.355621 20.713959 L 151.723969 20.713959 Z M 159.618927 20.713959 L 157.279678 20.713959 C 157.279678 20.713959 157.279678 20.32798 157.279678 14.281035 C 157.279678 7.84811 157.279678 7.84811 157.279678 7.84811 L 159.618927 7.84811 C 159.618927 7.84811 159.618927 7.971943 159.618927 8.60512 C 159.618927 9.362127 159.618927 9.362127 160.518677 8.60503 C 161.013535 8.188632 161.743317 7.766399 162.140396 7.666731 C 162.537491 7.567074 163.581024 7.545122 164.459366 7.617966 C 165.618057 7.714045 166.266693 7.944368 166.8228 8.457168 C 167.244354 8.845894 167.769653 9.587357 167.990173 10.104867 C 168.275696 10.774942 168.391083 12.437295 168.391083 15.879878 C 168.391083 20.278893 168.391083 20.713959 168.391083 20.713959 L 166.051849 20.713959 C 166.051849 20.713959 166.051849 20.713959 166.051849 16.313356 C 166.051849 12.960204 165.946732 11.709467 165.610199 11.058719 C 165.36731 10.589004 164.915421 10.069209 164.606018 9.903615 C 164.2966 9.73803 163.59201 9.602545 163.040253 9.602545 C 162.453888 9.602545 161.702164 9.865949 161.231155 10.236453 C 160.787918 10.585104 160.243835 11.30458 160.02211 11.835288 C 159.746872 12.494004 159.618927 14.055922 159.618927 16.757095 C 159.618927 20.713959 159.618927 20.713959 159.618927 20.713959 Z M 110.348579 18.654278 C 111.438904 18.654278 112.559357 18.447048 113.308594 18.106812 C 113.971664 17.805706 114.891579 17.086355 115.352859 16.508255 C 115.81414 15.930154 116.347176 15.028058 116.537376 14.503588 C 116.727585 13.979126 116.893219 12.591824 116.905457 11.420692 C 116.91777 10.24203 116.751656 8.871264 116.533409 8.350433 C 116.316536 7.832924 115.762756 6.96314 115.302773 6.417574 C 114.842796 5.872017 113.934677 5.184095 113.284729 4.88887 C 112.558617 4.559038 111.42659 4.352085 110.348579 4.352085 C 109.270561 4.352085 108.138535 4.559038 107.412422 4.88887 C 106.762474 5.184095 105.854355 5.872017 105.394379 6.417574 C 104.934395 6.96314 104.380615 7.832924 104.163742 8.350433 C 103.945496 8.871264 103.779381 10.24203 103.791695 11.420692 C 103.803932 12.591824 103.969566 13.979126 104.159775 14.503588 C 104.349976 15.028058 104.883011 15.930154 105.344292 16.508255 C 105.805573 17.086355 106.725487 17.805706 107.388557 18.106812 C 108.137794 18.447048 109.258247 18.654278 110.348579 18.654278 Z M 176.672531 12.819007 C 180.338898 12.819007 180.338898 12.819007 180.072418 11.868689 C 179.925858 11.346011 179.406631 10.556521 178.918579 10.114255 C 178.259048 9.516576 177.728439 9.310139 176.851715 9.310139 C 176.202988 9.310139 175.287872 9.508875 174.818161 9.751773 C 174.34845 9.994671 173.837463 10.430102 173.682648 10.719394 C 173.527817 11.008685 173.312286 11.59944 173.203659 12.032194 C 173.00618 12.819007 173.00618 12.819007 176.672531 12.819007 Z M 153.039795 5.216461 C 152.687576 5.216461 152.166061 4.958597 151.880829 4.643429 C 151.524231 4.249374 151.421463 3.83445 151.551849 3.314949 C 151.656158 2.899445 152.0336 2.450726 152.390625 2.317783 C 152.747681 2.184841 153.302963 2.172037 153.624603 2.289335 C 153.946243 2.406635 154.332092 2.846073 154.482056 3.265862 C 154.694885 3.861702 154.636841 4.159355 154.217438 4.622797 C 153.921936 4.949308 153.391998 5.216461 153.039795 5.216461 Z"/>
    <path id="Shape-copy-2" fill="#0a43a3" fill-rule="evenodd" stroke="none" d="M 7.839057 19.917723 C 10.053929 17.35577 11.416672 15.784911 12.296323 14.774049 C 13.895688 12.936119 13.895688 12.936119 14.189684 13.221069 C 14.483679 13.506021 14.483679 13.506021 16.762419 11.227281 L 19.041161 8.948541 L 17.912655 7.820036 L 16.784151 6.691528 L 15.846439 7.664883 C 15.330699 8.200223 14.30435 9.246086 13.565664 9.989023 C 12.222599 11.339811 12.222599 11.339811 12.501217 11.61843 C 12.779836 11.897048 12.779836 11.897048 11.525261 13.106295 C 10.835243 13.771379 9.419109 15.131255 8.378298 16.128239 C 7.337484 17.125223 6.450436 17.954216 6.407077 17.970448 C 6.363718 17.986677 6.187671 17.707596 6.015861 17.350266 C 5.844051 16.992939 5.604471 16.38847 5.483461 16.007004 C 5.362452 15.625538 5.204137 14.947769 5.131653 14.500852 C 5.026642 13.853382 4.99989 12.716132 5 8.904021 C 5.000084 5.971189 5.034591 3.995737 5.089167 3.799261 C 5.138134 3.62298 5.268237 3.345135 5.378285 3.181837 C 5.488335 3.018536 5.759383 2.773016 5.980615 2.636238 C 6.314071 2.430075 6.571345 2.364899 7.485097 2.255093 C 8.091329 2.182241 8.97483 2.024521 9.448432 1.904608 C 9.922033 1.784695 10.639671 1.551857 11.043182 1.387192 C 11.446692 1.222527 12.270678 0.843046 12.874259 0.543901 C 13.889549 0.040709 14.016212 0 14.566647 0 C 15.111243 0 15.247103 0.04232 16.17144 0.499863 C 16.726845 0.774788 17.56002 1.15624 18.022942 1.347544 C 18.485863 1.538847 19.225466 1.789135 19.666508 1.903748 C 20.10755 2.01836 20.884991 2.157286 21.394154 2.212481 C 21.903316 2.26767 22.49354 2.375437 22.705759 2.45196 C 22.917978 2.528482 23.233219 2.71542 23.406296 2.867384 C 23.579372 3.019346 23.793581 3.303497 23.882318 3.498827 C 24.032217 3.828785 24.0438 4.209806 24.045607 8.870267 C 24.047213 13.006996 24.023504 14.024447 23.910408 14.672996 C 23.83498 15.105539 23.653017 15.818433 23.506048 16.257204 C 23.359079 16.695972 23.072912 17.366425 22.870121 17.747097 C 22.66733 18.127768 22.255529 18.750174 21.955013 19.130222 C 21.654495 19.510269 21.127878 20.057529 20.78475 20.346354 C 20.441626 20.635181 19.948959 21.013445 19.689943 21.186937 C 19.430927 21.360432 18.601038 21.894564 17.845747 22.373899 C 17.090456 22.853237 16.196661 23.406527 15.859538 23.603432 C 15.343181 23.905025 15.154696 23.966124 14.663475 23.991148 C 14.111853 24.019251 14.044483 24.00004 13.415886 23.635418 C 13.050423 23.423429 12.372654 23.010378 11.909733 22.717531 C 11.446812 22.424683 10.599652 21.895269 10.027154 21.541058 C 9.454656 21.186846 8.72813 20.676693 8.412653 20.407381 L 7.839057 19.917723 Z M 16.399155 16.833141 C 16.505005 16.833324 16.757841 16.703899 16.961014 16.545532 C 17.164185 16.387163 17.775282 15.787783 18.319008 15.213572 C 18.862734 14.63936 19.981857 13.496214 20.805944 12.673242 C 21.981352 11.499432 22.313112 11.11681 22.345228 10.897994 C 22.382675 10.642855 22.310207 10.543097 21.496016 9.728904 C 20.645958 8.878843 20.591242 8.840455 20.281281 8.876642 C 19.990688 8.910563 19.665257 9.206811 17.173576 11.705626 C 14.501268 14.385588 14.390455 14.510101 14.390455 14.832864 C 14.390455 15.129763 14.465451 15.246871 15.032785 15.835877 C 15.386066 16.202656 15.794722 16.577011 15.940907 16.667778 C 16.087091 16.758545 16.293304 16.832958 16.399155 16.833141 Z M 11.04435 11.313482 C 11.399842 11.265799 11.571306 11.111786 14.094268 8.573938 C 16.419506 6.234982 16.775787 5.84082 16.831057 5.546217 C 16.875216 5.310831 16.853062 5.122704 16.758427 4.929438 C 16.683533 4.776489 16.368036 4.402002 16.057322 4.097242 C 15.746607 3.792479 15.365646 3.495291 15.210741 3.436819 C 14.977461 3.348768 14.879045 3.355122 14.637626 3.473839 C 14.477318 3.552666 13.229831 4.734177 11.865435 6.099409 C 10.501038 7.46464 9.291996 8.713989 9.178677 8.875734 C 9.034268 9.081848 8.982882 9.258604 9.006882 9.466665 C 9.03416 9.703164 9.206484 9.92623 9.854403 10.563764 C 10.666744 11.36308 10.668116 11.363946 11.04435 11.313482 Z"/>
    <path id="Shape-copy" fill="#ffffff" fill-rule="evenodd" stroke="none" d="M 35.781021 20.956379 L 35.781021 5.884428 L 32.890511 5.884428 L 30 5.884428 L 30 4.026241 L 30 2.168055 L 37.63921 2.168055 L 45.278416 2.168055 L 45.278416 4.026241 L 45.278416 5.884428 L 42.491138 5.884428 L 39.703861 5.884428 L 39.703861 13.420403 L 39.703861 20.956379 L 37.742443 20.956379 L 35.781021 20.956379 Z M 47.755997 20.956379 L 47.755997 2.168055 L 49.820648 2.168055 L 51.8853 2.168055 L 51.8853 9.807263 L 51.8853 17.446472 L 55.704906 17.446472 L 59.524509 17.446472 L 59.524509 19.201426 L 59.524509 20.956379 L 53.640255 20.956379 L 47.755997 20.956379 Z M 61.791416 20.956379 L 61.898857 2.271288 L 65.946541 2.271288 C 68.617226 2.271288 70.338058 2.362789 71.004936 2.540257 C 71.560829 2.6882 72.50367 3.031582 73.100128 3.303337 C 73.696602 3.57509 74.680061 4.266001 75.285606 4.838694 C 75.891144 5.411386 76.645042 6.35482 76.96093 6.935202 C 77.276817 7.515594 77.662651 8.46892 77.818367 9.053699 C 77.974075 9.63849 78.102577 10.780765 78.10392 11.592083 C 78.1054 12.481833 77.945442 13.587916 77.700844 14.379361 C 77.477814 15.101044 77.029839 16.109615 76.70536 16.620611 C 76.380875 17.131607 75.637054 17.979483 75.052429 18.504763 C 74.467796 19.030043 73.582901 19.650925 73.085991 19.884502 C 72.589073 20.11808 71.620552 20.454809 70.933723 20.632788 C 70.011475 20.871765 68.652901 20.956379 65.738174 20.956379 L 61.791416 20.956379 Z M 80.583946 20.956379 L 80.583946 2.135303 L 85.487495 2.203289 C 90.382118 2.271162 90.393196 2.272346 91.572899 2.851656 C 92.222916 3.170855 93.083168 3.815681 93.484543 4.284613 C 93.885925 4.753532 94.365585 5.617033 94.550446 6.203487 C 94.791618 6.968546 94.859192 7.742601 94.789665 8.943547 C 94.709152 10.334352 94.589905 10.784444 94.08429 11.605931 C 93.676323 12.268727 93.122536 12.798676 92.403885 13.213938 C 91.781357 13.573664 91.37101 13.943988 91.425072 14.097286 C 91.476257 14.242457 92.379463 15.764848 93.432182 17.480358 C 94.484894 19.195868 95.411591 20.858225 95.44944 20.956379 C 95.487289 21.054527 91.11367 20.956379 91.11367 20.956379 C 91.11367 20.956379 91.142952 20.956379 89.660843 18.427181 C 88.84568 17.036125 87.955132 15.549574 87.681854 15.123739 C 87.191528 14.359715 87.167305 14.349496 85.845886 14.349496 C 84.506783 14.349496 84.506783 14.349496 84.506783 17.652937 L 84.506783 20.956379 L 82.545364 20.956379 L 80.583946 20.956379 Z M 65.924927 5.884428 L 65.924927 17.50168 L 67.951973 17.404068 C 69.689087 17.320423 70.138382 17.220499 71.093224 16.705458 C 71.717621 16.368654 72.503166 15.714894 72.880157 15.218289 C 73.250168 14.730909 73.658638 13.941177 73.787865 13.463336 C 73.917091 12.985496 73.981125 11.937934 73.930153 11.135412 C 73.861008 10.046921 73.689407 9.404263 73.254562 8.605332 C 72.933975 8.016294 72.35202 7.290554 71.961349 6.992563 C 71.570656 6.694574 70.827606 6.323341 70.310104 6.167599 C 69.79261 6.011854 68.594246 5.884428 67.647064 5.884428 L 65.924927 5.884428 Z M 90.946381 8.362008 C 90.514565 7.025984 90.132088 6.451979 89.808899 6.212523 C 89.314926 5.846521 88.869354 5.770685 86.866768 5.711811 L 84.506783 5.642426 L 84.506783 8.373034 L 84.506783 11.103656 L 86.899719 10.998055 C 88.84549 10.912187 89.395302 10.816553 89.84185 10.486315 C 90.143913 10.262938 90.515999 9.693584 90.668716 9.221086 L 90.946381 8.362008 Z"/>
    <text id="Alexs" visibility="hidden" xml:space="preserve" x="47" y="20" font-family="Helvetica" font-size="18" font-weight="700" fill="#ffffff">Alex's</text>
    <text id="Law-Notes" visibility="hidden" xml:space="preserve" x="102" y="20" font-family="Helvetica" font-size="18" fill="#d5d5d5" letter-spacing="-0.18">Law Notes</text>
</svg>
