<?xml version="1.0" encoding="UTF-8"?>
<!-- Generated by Pixelmator Pro 3.7.1 -->
<svg width="200" height="32" viewBox="0 0 200 32" xmlns="http://www.w3.org/2000/svg">
    <g id="40635">
        <path id="Path" fill="#1e40af" stroke="none" visibility="hidden" d="M 25.186159 4.955088 C 25.152056 5.010502 23.481094 8.045515 21.473381 11.702873 L 17.820284 18.352621 L 18.208185 18.723473 C 18.813482 19.303194 19.764055 20.032108 20.390667 20.394436 L 20.586748 20.505264 L 25.245834 20.505264 L 29.904921 20.505264 L 30.390863 20.181301 C 30.65941 20.006533 31.064363 19.71241 31.290283 19.529116 C 31.703762 19.196629 32.620232 18.38246 32.620232 18.348358 C 32.620232 18.335571 32.594658 18.28442 32.560555 18.233265 C 32.419888 18.011608 25.501595 5.402668 25.501595 5.368563 C 25.501595 5.34725 27.415527 5.3302 30.211832 5.3302 L 34.92207 5.3302 L 34.92207 5.49218 C 34.92207 5.581697 34.7132 8.284224 34.453175 11.494003 C 34.197414 14.703785 33.920341 18.20343 33.835091 19.269093 C 33.754101 20.334757 33.664585 21.379108 33.639008 21.592243 C 33.506866 22.66217 33.055023 23.43371 32.36021 23.774723 L 32.078876 23.91539 L 28.182806 23.91539 L 24.286736 23.91539 L 24.073605 24.017694 C 23.792269 24.145575 23.562086 24.405598 23.481094 24.686932 C 23.395842 24.964005 23.395842 24.955479 23.481094 25.232552 C 23.557823 25.492575 23.775219 25.756859 24.026714 25.889 L 24.201485 25.98278 L 35.433586 25.995569 C 47.88055 26.004093 46.878826 26.029669 47.232624 25.72702 C 47.462811 25.526676 47.58643 25.258127 47.58643 24.968267 C 47.58643 24.576103 47.403133 24.269192 47.032284 24.051794 L 46.836201 23.936703 L 42.765362 23.91539 L 38.694523 23.894077 L 38.438763 23.766197 C 37.778049 23.43371 37.321945 22.649382 37.185539 21.613554 C 37.159966 21.41321 37.053398 20.13015 36.946831 18.757574 C 36.836002 17.384998 36.554665 13.812889 36.315956 10.81624 C 36.072987 7.819593 35.885429 5.360039 35.898216 5.34725 C 35.906742 5.338728 38.025284 5.3302 40.604195 5.3302 C 45.050148 5.3302 45.288857 5.334461 45.259018 5.402668 C 45.246227 5.445292 43.639206 8.373737 41.686909 11.911743 L 38.144638 18.348358 L 38.506962 18.685108 C 40.35696 20.415747 42.339096 21.451574 44.376648 21.745697 C 44.905216 21.822424 45.122608 21.835213 45.770535 21.8139 C 46.593227 21.788324 47.023754 21.724384 47.782509 21.528303 C 49.444946 21.089249 51.282154 20.023582 52.624889 18.71921 L 53.000004 18.352621 L 52.305191 17.095139 C 51.921551 16.404587 50.246326 13.369574 48.583889 10.347349 L 45.561665 4.861309 L 35.403748 4.861309 L 25.245834 4.861309 L 25.186159 4.955088 Z M 28.545134 11.869118 C 30.365288 15.172676 31.852957 17.88373 31.852957 17.892254 C 31.852957 17.90078 28.869095 17.905041 25.220259 17.905041 C 21.571423 17.905041 18.596088 17.887991 18.604612 17.870941 C 18.64724 17.764374 25.215996 5.841719 25.224522 5.850246 C 25.233046 5.85877 26.724977 8.565556 28.545134 11.869118 Z M 48.946217 11.950108 L 52.219936 17.88373 L 45.587242 17.896517 C 41.942669 17.90078 38.950279 17.896517 38.941757 17.887991 C 38.933231 17.879467 40.416637 15.159889 42.236794 11.852068 C 45.344269 6.208307 45.557404 5.837458 45.612816 5.92271 C 45.646915 5.969599 47.147373 8.684914 48.946217 11.950108 Z"/>
    </g>
    <path id="Shape-copy-3" fill="#bdbdbd" fill-rule="evenodd" stroke="none" visibility="hidden" d="M 117.96402 24.893999 C 116.821411 24.941723 115.491798 24.876526 115.009331 24.749126 C 114.526863 24.621725 113.590973 24.23929 112.929573 23.899269 C 112.268181 23.559246 111.140854 22.62907 110.4244 21.832209 C 109.639503 20.959204 108.926239 19.77792 108.629791 18.86001 C 108.359192 18.022173 108.137802 16.454134 108.137802 15.375484 C 108.137802 14.296848 108.357727 12.765858 108.626518 11.973299 C 108.970451 10.959223 109.641846 10.007717 110.892662 8.761745 C 112.302399 7.35747 113.025787 6.880571 114.389557 6.456392 C 115.667877 6.058788 116.617065 5.964163 118.089149 6.087584 C 119.352036 6.193462 120.594101 6.519543 121.518234 6.987831 C 122.31517 7.391674 123.574615 8.397675 124.317017 9.223394 C 125.159958 10.160952 125.847076 11.296558 126.146873 12.247608 C 126.480225 13.305124 126.592857 14.482037 126.515465 16.098881 C 126.435928 17.760296 126.2117 18.820293 125.732666 19.799442 C 125.363441 20.554157 124.564865 21.683231 123.958069 22.3085 C 123.351273 22.933762 122.221802 23.751772 121.448143 24.126291 C 120.474579 24.597588 119.401886 24.833954 117.96402 24.893999 Z M 133.839645 24.996004 C 132.911209 25.003151 132.188034 24.800203 131.507355 24.341492 C 130.964722 23.975815 130.221558 23.232655 129.855881 22.690018 C 129.22966 21.760767 129.19101 21.416998 129.19101 16.775764 C 129.19101 11.84811 129.19101 11.84811 129.19101 11.84811 L 131.530258 11.84811 C 131.530258 11.84811 131.530258 12.112148 131.530258 16.248714 C 131.530258 19.524981 131.638794 20.859215 131.955078 21.470833 C 132.188721 21.922657 132.772156 22.454819 133.251572 22.653404 C 133.731018 22.851997 134.508224 22.929926 134.978714 22.826591 C 135.449188 22.723257 136.179764 22.277956 136.602188 21.837036 C 137.093063 21.324684 137.477219 20.471212 137.666702 19.472092 C 137.829758 18.612286 137.963165 16.545155 137.963165 14.878464 C 137.963165 11.878416 137.963165 11.84811 137.963165 11.84811 L 140.302414 11.84811 C 140.302414 11.84811 140.302414 11.84811 140.302414 18.281036 C 140.302414 24.392311 140.302414 24.713959 140.302414 24.713959 L 137.963165 24.713959 C 137.963165 24.713959 137.963165 24.673721 137.963165 23.78577 C 137.963165 22.857582 137.963165 22.857582 137.209991 23.566467 C 136.795746 23.956352 136.170731 24.435162 135.82106 24.630497 C 135.471405 24.825823 134.579758 24.990301 133.839645 24.996004 Z M 183.60791 24.999939 C 183.028824 24.996414 182.028702 24.749313 181.385406 24.45084 C 180.742111 24.152357 179.793732 23.463953 179.277908 22.921038 C 178.76207 22.378132 178.137054 21.358646 177.888977 20.655527 C 177.6409 19.952408 177.437927 18.824993 177.437927 18.150154 C 177.437927 17.475323 177.645004 16.315435 177.898117 15.572624 C 178.187271 14.723963 178.829407 13.787796 179.626038 13.053499 C 180.354156 12.382353 181.425201 11.741833 182.142227 11.548754 C 182.828873 11.363859 183.942154 11.29529 184.616196 11.396368 C 185.290237 11.497444 186.431992 11.95447 187.153397 12.41198 C 188.019257 12.961086 188.678162 13.683998 189.09201 14.538916 C 189.48584 15.352463 189.718964 16.397682 189.718964 17.349937 C 189.718964 18.865847 189.718964 18.865847 184.894272 18.865847 C 180.085495 18.865847 180.06958 18.868015 180.070663 19.523758 C 180.071274 19.885609 180.337326 20.617237 180.66188 21.149586 C 180.98645 21.681936 181.705444 22.306957 182.259644 22.538513 C 182.813828 22.770069 183.567535 22.959034 183.93457 22.958435 C 184.301575 22.957829 185.032196 22.694969 185.558151 22.374294 C 186.084091 22.053619 186.664444 21.46199 186.847809 21.059557 C 187.119217 20.46385 187.379715 20.327873 187.379715 20.327873 L 189.426559 20.327873 C 189.426559 20.327873 189.426559 20.480198 189.426559 20.781002 C 189.426559 21.030226 189.236938 21.600813 189.005188 22.048979 C 188.773422 22.497143 188.148407 23.192436 187.616257 23.594076 C 187.084106 23.995724 186.201416 24.477798 185.654755 24.665352 C 185.108078 24.852907 184.186996 25.003473 183.60791 24.999939 Z M 196.950073 24.981236 C 196.269836 24.967403 195.356873 24.84866 194.921265 24.71735 C 194.485657 24.58604 193.727066 24.192226 193.235504 23.842213 C 192.743958 23.492195 192.146408 22.827984 191.907593 22.366182 C 191.668793 21.904381 191.473404 21.322632 191.473404 21.073406 C 191.473404 20.74951 191.7686 20.620279 192.50853 20.620279 C 193.3358 20.620279 193.767075 20.855137 194.656296 21.789902 C 195.59433 22.775978 195.9534 22.959524 196.944397 22.959524 C 197.690811 22.959524 198.401077 22.738329 198.890305 22.353493 C 199.33313 22.005165 199.660751 21.454512 199.660751 21.058548 C 199.660751 20.679657 199.463303 20.172186 199.221954 19.93084 C 198.980606 19.689505 198.026627 19.342506 197.102005 19.159733 C 196.177399 18.976971 194.997543 18.695709 194.480118 18.534721 C 193.962723 18.373724 193.206116 17.845942 192.798782 17.36187 C 192.25824 16.719456 192.058212 16.143044 192.058212 15.227776 C 192.058212 14.398907 192.265213 13.710663 192.668839 13.197525 C 193.004684 12.770569 193.6297 12.244083 194.05777 12.027554 C 194.48584 11.811026 195.31636 11.546988 195.903397 11.440805 C 196.490448 11.334625 197.608841 11.390745 198.388748 11.565521 C 199.168625 11.740297 200.114929 12.171446 200.491608 12.523621 C 200.868286 12.875797 201.279587 13.361305 201.405624 13.602545 C 201.531647 13.843784 201.7258 14.337217 201.837097 14.699066 C 202.026138 15.31385 201.953156 15.356979 200.723587 15.356979 C 199.667267 15.356979 199.371384 15.242348 199.223282 14.775738 C 199.121811 14.45606 198.754715 13.995518 198.407501 13.752317 C 198.060287 13.509125 197.362686 13.310139 196.857269 13.310139 C 196.351868 13.310139 195.591644 13.582851 195.167908 13.91617 C 194.733688 14.257717 194.397461 14.816347 194.397461 15.196194 C 194.397461 15.566887 194.571045 16.014259 194.783234 16.190346 C 194.995407 16.366432 196.080963 16.715931 197.195587 16.966995 C 198.310181 17.218058 199.588455 17.568447 200.036163 17.745632 C 200.483902 17.922817 201.108902 18.396683 201.425095 18.79866 C 201.814911 19.29421 202 19.980331 202 20.929684 C 202 21.996027 201.825974 22.536657 201.270081 23.197309 C 200.868622 23.674414 200.010666 24.276634 199.36351 24.535568 C 198.716385 24.79451 197.630341 24.995058 196.950073 24.981236 Z M 148.562881 24.702251 C 147.638138 24.695808 146.522995 24.495966 146.084778 24.258154 C 145.646561 24.020344 145.153122 23.573721 144.988266 23.265663 C 144.823395 22.957615 144.688507 20.864159 144.688507 18.613552 C 144.688507 15.283413 144.396088 13.894951 144.396088 13.894951 C 142.349258 13.894951 142.349258 13.894951 142.349258 13.894951 L 142.349258 11.84811 L 144.396088 11.84811 C 144.396088 11.84811 144.396088 11.84811 144.396088 9.801271 C 144.396088 7.754433 144.396088 7.754433 144.396088 7.754433 L 147.02774 7.754433 C 147.02774 7.754433 147.02774 7.856777 147.02774 9.801271 C 147.02774 11.84811 147.02774 11.84811 147.02774 11.84811 L 150.536606 11.84811 L 150.536606 13.894951 L 147.02774 13.894951 C 147.02774 13.894951 147.02774 13.894951 147.02774 17.783943 C 147.02774 20.41884 147.1409 21.786091 147.378632 22.023823 C 147.571609 22.216812 148.295334 22.374714 148.986862 22.374714 C 150.00531 22.374714 150.244202 22.374714 150.244202 22.374714 L 150.244202 24.713959 C 150.244202 24.713959 150.244202 24.713959 148.562881 24.702251 Z M 152.875854 24.713959 C 152.875854 24.713959 152.875854 24.713959 152.875854 15.356979 C 152.875854 6 152.875854 6 152.875854 6 L 155.215103 6 C 155.215103 6 155.215103 6.561422 155.215103 15.356979 C 155.215103 23.684694 155.215103 24.713959 155.215103 24.713959 L 152.875854 24.713959 Z M 158.723969 24.713959 C 158.723969 24.713959 158.723969 24.713959 158.723969 18.281036 C 158.723969 11.84811 158.723969 11.84811 158.723969 11.84811 L 161.355621 11.84811 C 161.355621 11.84811 161.355621 12.169758 161.355621 18.281036 C 161.355621 24.32798 161.355621 24.713959 161.355621 24.713959 L 158.723969 24.713959 Z M 166.618927 24.713959 L 164.279678 24.713959 C 164.279678 24.713959 164.279678 24.32798 164.279678 18.281036 C 164.279678 11.84811 164.279678 11.84811 164.279678 11.84811 L 166.618927 11.84811 C 166.618927 11.84811 166.618927 11.971943 166.618927 12.60512 C 166.618927 13.362127 166.618927 13.362127 167.518677 12.60503 C 168.013535 12.188633 168.743317 11.766399 169.140396 11.666731 C 169.537491 11.567074 170.581024 11.545122 171.459366 11.617966 C 172.618057 11.714045 173.266693 11.944368 173.8228 12.457169 C 174.244354 12.845894 174.769653 13.587357 174.990173 14.104866 C 175.275696 14.774942 175.391083 16.437294 175.391083 19.879879 C 175.391083 24.278893 175.391083 24.713959 175.391083 24.713959 L 173.051849 24.713959 C 173.051849 24.713959 173.051849 24.713959 173.051849 20.313356 C 173.051849 16.960205 172.946732 15.709467 172.610199 15.05872 C 172.36731 14.589005 171.915421 14.06921 171.606018 13.903614 C 171.2966 13.738029 170.59201 13.602545 170.040253 13.602545 C 169.453888 13.602545 168.702164 13.865948 168.231155 14.236454 C 167.787918 14.585104 167.243835 15.304581 167.02211 15.835289 C 166.746872 16.494003 166.618927 18.055922 166.618927 20.757095 C 166.618927 24.713959 166.618927 24.713959 166.618927 24.713959 Z M 117.348579 22.654278 C 118.438904 22.654278 119.559357 22.447048 120.308594 22.106812 C 120.971664 21.805706 121.891579 21.086355 122.352859 20.508255 C 122.81414 19.930153 123.347176 19.028057 123.537376 18.503588 C 123.727585 17.979126 123.893219 16.591824 123.905457 15.420692 C 123.91777 14.242031 123.751656 12.871265 123.533409 12.350433 C 123.316536 11.832924 122.762756 10.96314 122.302773 10.417574 C 121.842796 9.872017 120.934677 9.184095 120.284729 8.88887 C 119.558617 8.559038 118.42659 8.352085 117.348579 8.352085 C 116.270561 8.352085 115.138535 8.559038 114.412422 8.88887 C 113.762474 9.184095 112.854355 9.872017 112.394379 10.417574 C 111.934395 10.96314 111.380615 11.832924 111.163742 12.350433 C 110.945496 12.871265 110.779381 14.242031 110.791695 15.420692 C 110.803932 16.591824 110.969566 17.979126 111.159775 18.503588 C 111.349976 19.028057 111.883011 19.930153 112.344292 20.508255 C 112.805573 21.086355 113.725487 21.805706 114.388557 22.106812 C 115.137794 22.447048 116.258247 22.654278 117.348579 22.654278 Z M 183.672531 16.819008 C 187.338898 16.819008 187.338898 16.819008 187.072418 15.868689 C 186.925858 15.346012 186.406631 14.556522 185.918579 14.114254 C 185.259048 13.516575 184.728439 13.310139 183.851715 13.310139 C 183.202988 13.310139 182.287872 13.508875 181.818161 13.751774 C 181.34845 13.994671 180.837463 14.430103 180.682648 14.719395 C 180.527817 15.008686 180.312286 15.59944 180.203659 16.032194 C 180.00618 16.819008 180.00618 16.819008 183.672531 16.819008 Z M 160.039795 9.216461 C 159.687576 9.216461 159.166061 8.958597 158.880829 8.643429 C 158.524231 8.249374 158.421463 7.83445 158.551849 7.314949 C 158.656158 6.899445 159.0336 6.450726 159.390625 6.317783 C 159.747681 6.184841 160.302963 6.172037 160.624603 6.289335 C 160.946243 6.406635 161.332092 6.846073 161.482056 7.265862 C 161.694885 7.861702 161.636841 8.159355 161.217438 8.622797 C 160.921936 8.949308 160.391998 9.216461 160.039795 9.216461 Z"/>
    <path id="Shape-copy-2" fill="#0a43a3" fill-rule="evenodd" stroke="none" d="M 5.667115 25.727058 C 8.527992 22.41787 10.288201 20.388844 11.424417 19.083145 C 13.490264 16.709152 13.490264 16.709152 13.870008 17.077213 C 14.249752 17.445274 14.249752 17.445274 17.193125 14.501904 L 20.136499 11.558531 L 18.678846 10.100878 L 17.221195 8.643223 L 16.009985 9.900473 C 15.34382 10.591953 14.018119 11.94286 13.063983 12.902487 C 11.32919 14.647255 11.32919 14.647255 11.689072 15.007137 C 12.048955 15.36702 12.048955 15.36702 10.428462 16.928963 C 9.537189 17.788031 7.708016 19.544537 6.363635 20.832306 C 5.01925 22.120079 3.87348 23.190861 3.817474 23.211826 C 3.761469 23.23279 3.534075 22.872311 3.312154 22.410759 C 3.090233 21.949211 2.780776 21.168438 2.62447 20.675713 C 2.468167 20.182985 2.263677 19.307533 2.170052 18.730267 C 2.034413 17.893951 1.999858 16.425003 2 11.501026 C 2.000108 7.712786 2.04468 5.16116 2.115174 4.907377 C 2.178423 4.679682 2.346473 4.320799 2.488618 4.109871 C 2.630766 3.898941 2.98087 3.581812 3.266628 3.40514 C 3.697342 3.138845 4.029654 3.054659 5.209917 2.912827 C 5.992966 2.818727 7.134155 2.615005 7.745892 2.460117 C 8.357627 2.305229 9.284575 2.00448 9.805778 1.791788 C 10.326978 1.579096 11.391292 1.088934 12.170918 0.702538 C 13.482334 0.05258 13.645941 0 14.356918 0 C 15.060356 0 15.235841 0.054663 16.429777 0.645655 C 17.147175 1.000767 18.22336 1.493477 18.821301 1.740576 C 19.419239 1.987677 20.374559 2.310965 20.944239 2.459005 C 21.513918 2.607048 22.518112 2.786493 23.175781 2.857786 C 23.83345 2.929071 24.595823 3.068272 24.86994 3.167114 C 25.144056 3.265955 25.551241 3.507416 25.774799 3.703703 C 25.998356 3.899988 26.275042 4.267015 26.389662 4.519318 C 26.583281 4.945513 26.598242 5.437666 26.600574 11.457426 C 26.60265 16.800701 26.572027 18.11491 26.425943 18.952618 C 26.328516 19.51132 26.093481 20.43214 25.903646 20.998886 C 25.713812 21.56563 25.344179 22.431631 25.082239 22.923332 C 24.820301 23.415031 24.288393 24.218973 23.900225 24.709869 C 23.512056 25.200764 22.831842 25.90764 22.388636 26.280704 C 21.945433 26.653774 21.309072 27.142365 20.97451 27.366459 C 20.639948 27.590557 19.568008 28.280478 18.592422 28.89962 C 17.616838 29.518764 16.462355 30.233429 16.026903 30.487764 C 15.359941 30.877323 15.116483 30.956242 14.481989 30.988565 C 13.769477 31.024864 13.682458 31.000051 12.87052 30.529079 C 12.398462 30.255262 11.523011 29.721737 10.925072 29.343477 C 10.327132 28.965214 9.232884 28.281389 8.493407 27.823864 C 7.753931 27.366341 6.815502 26.707394 6.40801 26.359533 L 5.667115 25.727058 Z M 16.723907 21.742805 C 16.860632 21.743042 17.187212 21.575869 17.449642 21.371311 C 17.712072 21.166752 18.501406 20.392551 19.203718 19.650862 C 19.906031 18.909172 21.351566 17.43261 22.416012 16.369602 C 23.934246 14.853432 24.36277 14.359211 24.404253 14.076574 C 24.452621 13.747019 24.359018 13.618166 23.307354 12.5665 C 22.209362 11.468504 22.138687 11.418921 21.738321 11.465662 C 21.362972 11.509478 20.942623 11.89213 17.724203 15.119764 C 14.272471 18.581383 14.129338 18.742214 14.129338 19.159115 C 14.129338 19.54261 14.226208 19.693874 14.959015 20.454674 C 15.415336 20.928429 15.943182 21.411972 16.132004 21.529213 C 16.320827 21.646454 16.587185 21.742569 16.723907 21.742805 Z M 9.807285 14.613247 C 10.266463 14.551655 10.487937 14.352722 13.746763 11.074669 C 16.750195 8.053516 17.210392 7.544392 17.281782 7.163862 C 17.33882 6.859823 17.310205 6.616825 17.187967 6.367189 C 17.09123 6.16963 16.683714 5.685919 16.282373 5.292271 C 15.881034 4.898617 15.38896 4.51475 15.188874 4.439224 C 14.887554 4.325491 14.760432 4.333698 14.4486 4.487041 C 14.241535 4.58886 12.630198 6.114977 10.867853 7.878403 C 9.105507 9.641825 7.543828 11.255568 7.397458 11.464489 C 7.21093 11.730719 7.144556 11.959028 7.175556 12.227776 C 7.21079 12.533253 7.433375 12.821381 8.27027 13.644859 C 9.319545 14.677311 9.321316 14.678429 9.807285 14.613247 Z"/>
    <path id="Shape-copy" fill="#ffffff" fill-rule="evenodd" stroke="none" visibility="hidden" d="M 42.781021 24.956379 L 42.781021 9.884428 L 39.890511 9.884428 L 37 9.884428 L 37 8.026241 L 37 6.168055 L 44.63921 6.168055 L 52.278416 6.168055 L 52.278416 8.026241 L 52.278416 9.884428 L 49.491138 9.884428 L 46.703861 9.884428 L 46.703861 17.420403 L 46.703861 24.956379 L 44.742443 24.956379 L 42.781021 24.956379 Z M 54.755997 24.956379 L 54.755997 6.168055 L 56.820648 6.168055 L 58.8853 6.168055 L 58.8853 13.807262 L 58.8853 21.446472 L 62.704906 21.446472 L 66.524513 21.446472 L 66.524513 23.201426 L 66.524513 24.956379 L 60.640255 24.956379 L 54.755997 24.956379 Z M 68.79142 24.956379 L 68.898857 6.271288 L 72.946541 6.271288 C 75.617226 6.271288 77.338058 6.362789 78.004936 6.540257 C 78.560829 6.6882 79.50367 7.031582 80.100128 7.303337 C 80.696602 7.57509 81.680061 8.266001 82.285606 8.838694 C 82.891144 9.411386 83.645042 10.35482 83.96093 10.935202 C 84.276817 11.515594 84.662651 12.46892 84.818367 13.053698 C 84.974075 13.638489 85.102577 14.780764 85.10392 15.592083 C 85.1054 16.481834 84.945442 17.587917 84.700844 18.37936 C 84.477814 19.101044 84.029839 20.109615 83.70536 20.620611 C 83.380875 21.131607 82.637054 21.979483 82.052429 22.504763 C 81.467796 23.030043 80.582901 23.650925 80.085991 23.884502 C 79.589073 24.11808 78.620552 24.454809 77.933723 24.632788 C 77.011475 24.871765 75.652901 24.956379 72.738174 24.956379 L 68.79142 24.956379 Z M 87.583946 24.956379 L 87.583946 6.135303 L 92.487495 6.203289 C 97.382118 6.271162 97.393196 6.272346 98.572899 6.851656 C 99.222916 7.170855 100.083168 7.815681 100.484543 8.284613 C 100.885925 8.753532 101.365585 9.617033 101.550446 10.203487 C 101.791618 10.968546 101.859192 11.742601 101.789665 12.943546 C 101.709152 14.334351 101.589905 14.784443 101.08429 15.60593 C 100.676323 16.268726 100.122536 16.798676 99.403885 17.213938 C 98.781357 17.573664 98.37101 17.943989 98.425072 18.097286 C 98.476257 18.242458 99.379463 19.764847 100.432182 21.480358 C 101.484894 23.195868 102.411591 24.858225 102.44944 24.956379 C 102.487289 25.054527 98.11367 24.956379 98.11367 24.956379 C 98.11367 24.956379 98.142952 24.956379 96.660843 22.427181 C 95.84568 21.036125 94.955132 19.549574 94.681854 19.123739 C 94.191528 18.359715 94.167305 18.349495 92.845886 18.349495 C 91.506783 18.349495 91.506783 18.349495 91.506783 21.652937 L 91.506783 24.956379 L 89.545364 24.956379 L 87.583946 24.956379 Z M 72.924927 9.884428 L 72.924927 21.50168 L 74.951973 21.404068 C 76.689087 21.320423 77.138382 21.220499 78.093224 20.705458 C 78.717621 20.368654 79.503166 19.714893 79.880157 19.218288 C 80.250168 18.730909 80.658638 17.941177 80.787865 17.463337 C 80.917091 16.985497 80.981125 15.937933 80.930153 15.135412 C 80.861008 14.046921 80.689407 13.404263 80.254562 12.605331 C 79.933975 12.016293 79.35202 11.290554 78.961349 10.992563 C 78.570656 10.694574 77.827606 10.323341 77.310104 10.167599 C 76.79261 10.011854 75.594246 9.884428 74.647064 9.884428 L 72.924927 9.884428 Z M 97.946381 12.362007 C 97.514565 11.025984 97.132088 10.451979 96.808899 10.212523 C 96.314926 9.846521 95.869354 9.770685 93.866768 9.711811 L 91.506783 9.642426 L 91.506783 12.373034 L 91.506783 15.103655 L 93.899719 14.998055 C 95.84549 14.912186 96.395302 14.816553 96.84185 14.486315 C 97.143913 14.262938 97.515999 13.693584 97.668716 13.221085 L 97.946381 12.362007 Z"/>
    <text id="Alexs" visibility="hidden" xml:space="preserve" x="53" y="26" font-family="Helvetica" font-size="18" font-weight="700" fill="#ffffff">Alex's</text>
    <text id="Law-Notes" visibility="hidden" xml:space="preserve" x="108" y="26" font-family="Helvetica" font-size="18" fill="#d5d5d5" letter-spacing="-0.18">Law Notes</text>
    <path id="LAW-Maxxing" fill="#212121" fill-rule="evenodd" stroke="none" visibility="hidden" d="M 185.168259 25.8379 C 185.548538 26.160313 186.189209 26.321516 187.090317 26.321516 C 188.363434 26.321516 189.214905 25.895773 189.644806 25.044275 C 189.925873 24.498657 190.066422 23.581036 190.066422 22.291389 L 190.066422 21.423363 C 189.727463 22.002048 189.363724 22.436058 188.975189 22.725403 C 188.272476 23.262756 187.358994 23.531429 186.234695 23.531429 C 184.498627 23.531429 183.111862 22.921749 182.074371 21.70237 C 181.03685 20.482994 180.518112 18.831692 180.518112 16.748415 C 180.518112 14.739542 181.01825 13.051039 182.01857 11.682856 C 183.01886 10.314674 184.43663 9.630592 186.271896 9.630592 C 186.949783 9.630592 187.540848 9.733927 188.045151 9.940601 C 188.904907 10.296082 189.599319 10.949162 190.128418 11.899862 L 190.128418 9.953001 L 193.563324 9.953001 L 193.563324 22.775005 C 193.563324 24.519335 193.269852 25.833763 192.682907 26.718328 C 191.674316 28.23945 189.739868 29 186.879517 29 C 185.151718 29 183.742218 28.66106 182.650986 27.983168 C 181.559738 27.305277 180.956268 26.292589 180.84053 24.945072 L 184.684647 24.945072 C 184.783844 25.358421 184.945053 25.656027 185.168259 25.8379 Z M 184.573044 18.856482 C 185.052521 19.997322 185.912277 20.567734 187.152328 20.567734 C 187.979019 20.567734 188.677551 20.255661 189.247986 19.631506 C 189.818405 19.007351 190.103622 18.013262 190.103622 16.649212 C 190.103622 15.367832 189.83287 14.392344 189.291397 13.722719 C 188.749893 13.053097 188.02449 12.718288 187.115128 12.718288 C 185.875076 12.718288 185.019455 13.301102 184.548248 14.466743 C 184.300232 15.086765 184.176239 15.851448 184.176239 16.760815 C 184.176239 17.546177 184.308502 18.244726 184.573044 18.856482 Z M 172.451401 12.569485 C 171.252701 12.569485 170.430145 13.077894 169.983734 14.094732 C 169.752258 14.632086 169.63652 15.318233 169.63652 16.153196 L 169.63652 23.469425 L 166.114807 23.469425 L 166.114807 9.977802 L 169.524918 9.977802 L 169.524918 11.949465 C 169.979599 11.255039 170.40947 10.754896 170.81456 10.449017 C 171.542038 9.903399 172.463806 9.630592 173.579834 9.630592 C 174.976974 9.630592 176.119858 9.996399 177.008545 10.728025 C 177.897263 11.459654 178.341583 12.672812 178.341583 14.36754 L 178.341583 23.469425 L 174.720673 23.469425 L 174.720673 15.247969 C 174.720673 14.537008 174.62561 13.991398 174.435471 13.611116 C 174.088257 12.916691 173.426926 12.569485 172.451401 12.569485 Z M 162.921463 9.953001 L 162.921463 23.469425 L 159.337753 23.469425 L 159.337753 9.953001 Z M 162.921463 5.079649 L 162.921463 8.340952 L 159.337753 8.340952 L 159.337753 5.079649 Z M 157.458847 23.469425 L 153.056702 23.469425 L 150.725433 19.414499 L 148.38176 23.469425 L 144.091217 23.469425 L 148.704163 16.624413 L 144.289627 9.977802 L 148.617371 9.977802 L 150.874237 13.896326 L 153.081497 9.977802 L 157.285233 9.977802 L 152.845901 16.562408 Z M 143.58876 23.469425 L 139.186615 23.469425 L 136.855347 19.414499 L 134.511673 23.469425 L 130.22113 23.469425 L 134.834076 16.624413 L 130.41954 9.977802 L 134.747284 9.977802 L 137.00415 13.896326 L 139.211426 9.977802 L 143.415146 9.977802 L 138.975815 16.562408 Z M 118.186317 11.416248 C 119.120476 10.225803 120.724243 9.630592 122.997665 9.630592 C 124.477455 9.630592 125.791878 9.924065 126.940994 10.511019 C 128.090088 11.097973 128.664642 12.20573 128.664642 13.834324 L 128.664642 20.034519 C 128.664642 20.464401 128.672913 20.98521 128.689453 21.596968 C 128.714249 22.059917 128.784515 22.374058 128.900253 22.539398 C 129.015991 22.704737 129.18959 22.841141 129.421066 22.94861 L 129.421066 23.469425 L 125.57695 23.469425 C 125.469475 23.196617 125.395073 22.940344 125.353745 22.700603 C 125.312408 22.460861 125.279335 22.188053 125.254539 21.882175 C 124.766785 22.411263 124.204636 22.861805 123.568085 23.233818 C 122.807518 23.671967 121.947769 23.891041 120.988808 23.891041 C 119.765289 23.891041 118.754669 23.541765 117.956909 22.843206 C 117.159142 22.144648 116.760269 21.154694 116.760269 19.873314 C 116.760269 18.211653 117.400948 17.008827 118.682335 16.264801 C 119.385017 15.859718 120.418381 15.570379 121.782433 15.396772 L 122.985268 15.247969 C 123.638351 15.165298 124.105431 15.061964 124.386513 14.937958 C 124.890793 14.723017 125.142937 14.38821 125.142937 13.933527 C 125.142937 13.379639 124.950729 12.997299 124.566315 12.786491 C 124.181892 12.575684 123.617683 12.470282 122.873665 12.470282 C 122.038696 12.470282 121.447617 12.676952 121.10041 13.0903 C 120.852394 13.396179 120.687057 13.809519 120.604393 14.330339 L 117.194283 14.330339 C 117.268684 13.148163 117.599358 12.176809 118.186317 11.416248 Z M 120.815201 20.914946 C 121.145874 21.187756 121.550949 21.324158 122.030434 21.324158 C 122.790993 21.324158 123.491608 21.100954 124.132301 20.654537 C 124.772987 20.208122 125.105736 19.393837 125.130531 18.211662 L 125.130531 16.897221 C 124.907318 17.037758 124.682053 17.151428 124.454712 17.238232 C 124.227364 17.325033 123.915298 17.405636 123.518486 17.480038 L 122.724861 17.628841 C 121.980827 17.761114 121.447617 17.922318 121.125206 18.112457 C 120.579582 18.43487 120.306786 18.935013 120.306786 19.612906 C 120.306786 20.216393 120.47625 20.650402 120.815201 20.914946 Z M 100.558914 23.469425 L 97 23.469425 L 97 5.191252 L 102.555374 5.191252 L 105.878677 19.563305 L 109.177185 5.191252 L 114.670555 5.191252 L 114.670555 23.469425 L 111.111641 23.469425 L 111.111641 11.106237 C 111.111641 10.750757 111.115776 10.252682 111.124046 9.61199 C 111.132309 8.9713 111.136444 8.477358 111.136444 8.130144 L 107.676735 23.469425 L 103.969017 23.469425 L 100.534111 8.130144 C 100.534111 8.477358 100.538246 8.9713 100.546509 9.61199 C 100.554779 10.252682 100.558914 10.750757 100.558914 11.106237 Z"/>
    <path id="Shape" fill="#000000" fill-rule="evenodd" stroke="none" visibility="hidden" d="M 34.248833 5 L 38.218983 5 L 38.218983 20.584126 L 47.628754 20.584126 L 47.628754 24 L 34.248833 24 Z M 54.235188 20.094301 L 61.234505 20.094301 L 62.459064 24 L 66.764359 24 L 60.035728 5 L 55.549973 5 L 48.769787 24 L 52.920399 24 L 54.235188 20.094301 Z M 89.986122 5 L 85.951523 5 L 83.41217 15.995251 L 82.832115 18.908413 L 82.252068 15.87924 L 79.9963 5 L 75.807014 5 L 73.667259 15.943691 L 73.112984 18.908413 L 72.571602 15.87924 L 70.058037 5 L 65.842972 5 L 71.231033 24 L 74.917603 24 L 77.212036 12.888739 L 77.882324 9.215061 L 78.552605 12.888739 L 80.847046 24 L 84.636734 24 L 89.986122 5 Z M 57.754181 9.343962 L 60.125957 16.820217 L 55.305061 16.820217 L 57.754181 9.343962 Z"/>
    <path id="path1" fill="#cacaca" fill-rule="evenodd" stroke="none" visibility="hidden" d="M 186.465607 9.339306 C 187.5858 9.339306 188.563705 9.614902 189.399414 10.166105 C 189.852829 10.477268 190.315109 10.930672 190.786316 11.526325 L 190.786316 9.726034 L 193 9.726034 L 193 22.714798 C 193 24.528433 192.733292 25.959761 192.199875 27.008825 C 191.204132 28.946926 189.323853 29.91596 186.55896 29.91596 C 185.02092 29.91596 183.727386 29.571465 182.678329 28.88246 C 181.629257 28.193457 181.042511 27.115517 180.918045 25.648605 L 183.358444 25.648605 C 183.474014 26.288712 183.70517 26.78212 184.051895 27.128845 C 184.594193 27.662266 185.447647 27.928974 186.612305 27.928974 C 188.452606 27.928974 189.657227 27.279985 190.226212 25.981993 C 190.564056 25.217421 190.719635 23.85277 190.692963 21.887997 C 190.21286 22.617008 189.63501 23.159313 188.959351 23.514927 C 188.283661 23.870543 187.390213 24.048347 186.278915 24.048347 C 184.731979 24.048347 183.378448 23.499374 182.218262 22.401413 C 181.05806 21.303453 180.477982 19.487623 180.477982 16.953869 C 180.477982 14.562357 181.0625 12.69541 182.231598 11.352964 C 183.400665 10.010519 184.811996 9.339306 186.465607 9.339306 Z M 190.786316 16.673824 C 190.786316 14.90464 190.421799 13.59333 189.692795 12.739855 C 188.963776 11.886379 188.03476 11.459648 186.905685 11.459648 C 185.216507 11.459648 184.060776 12.250877 183.438461 13.833364 C 183.109512 14.67795 182.945038 15.784784 182.945038 17.1539 C 182.945038 18.763058 183.271744 19.987686 183.925201 20.827827 C 184.578644 21.667967 185.456543 22.08803 186.55896 22.08803 C 188.283676 22.08803 189.497192 21.310135 190.199554 19.75432 C 190.590729 18.874174 190.786316 17.847351 190.786316 16.673824 Z M 166.508774 9.59268 L 168.789154 9.59268 L 168.789154 11.619673 C 169.464813 10.783979 170.180481 10.183889 170.936157 9.819384 C 171.691833 9.454878 172.531967 9.272629 173.456573 9.272629 C 175.483582 9.272629 176.852676 9.979403 177.563904 11.392971 C 177.955078 12.166433 178.150665 13.273266 178.150665 14.713507 L 178.150665 23.874985 L 175.710266 23.874985 L 175.710266 14.873531 C 175.710266 14.002275 175.58136 13.299948 175.323532 12.766525 C 174.896805 11.877489 174.123352 11.432978 173.003159 11.432978 C 172.434174 11.432978 171.967438 11.490765 171.602936 11.606339 C 170.945053 11.801926 170.367172 12.193098 169.869324 12.779861 C 169.469254 13.251051 169.209213 13.737791 169.089203 14.240097 C 168.969177 14.742403 168.909164 15.460289 168.909164 16.393778 L 168.909164 23.874985 L 166.508774 23.874985 Z M 160.714249 9.659357 L 163.154648 9.659357 L 163.154648 23.874985 L 160.714249 23.874985 Z M 160.714249 4.285156 L 163.154648 4.285156 L 163.154648 7.005596 L 160.714249 7.005596 Z M 145.971603 9.59268 L 149.078781 9.59268 L 152.359314 14.620157 L 155.67984 9.59268 L 158.600311 9.659357 L 153.786209 16.553802 L 158.813675 23.874985 L 155.746521 23.874985 L 152.19928 18.51412 L 148.758728 23.874985 L 145.718231 23.874985 L 150.745712 16.553802 Z M 132.589172 9.59268 L 135.696335 9.59268 L 138.976868 14.620157 L 142.297409 9.59268 L 145.21788 9.659357 L 140.403763 16.553802 L 145.431244 23.874985 L 142.36409 23.874985 L 138.816849 18.51412 L 135.376282 23.874985 L 132.3358 23.874985 L 137.363281 16.553802 Z M 120.873688 20.074371 C 120.873688 20.76782 121.127052 21.314569 121.633812 21.714638 C 122.140556 22.114704 122.740646 22.314734 123.434097 22.314734 C 124.278679 22.314734 125.096581 22.119148 125.887833 21.727972 C 127.221375 21.078976 127.888153 20.016592 127.888153 18.540791 L 127.888153 16.607145 C 127.594765 16.793842 127.216934 16.949423 126.754639 17.073887 C 126.292328 17.198353 125.838936 17.287254 125.394417 17.340597 L 123.940849 17.527294 C 123.069588 17.642868 122.416161 17.825119 121.98053 18.074049 C 121.242622 18.491898 120.873688 19.158665 120.873688 20.074371 Z M 126.687958 15.220255 C 127.239159 15.149132 127.608101 14.917986 127.7948 14.52681 C 127.901489 14.313442 127.954826 14.006727 127.954826 13.606661 C 127.954826 12.788748 127.663673 12.195324 127.081352 11.826374 C 126.499031 11.457422 125.665573 11.272951 124.580948 11.272951 C 123.327408 11.272951 122.438385 11.610779 121.913857 12.286448 C 121.620468 12.659843 121.429329 13.215483 121.340431 13.953384 L 119.100067 13.953384 C 119.144516 12.19309 119.715714 10.968462 120.813675 10.279457 C 121.911629 9.590452 123.185165 9.245956 124.634293 9.245956 C 126.314575 9.245956 127.679222 9.566006 128.728287 10.206112 C 129.768448 10.846218 130.288544 11.841925 130.288544 13.19326 L 130.288544 21.421257 C 130.288544 21.670185 130.339661 21.870216 130.441895 22.021353 C 130.544144 22.172489 130.759705 22.248056 131.088669 22.248056 C 131.195358 22.248056 131.315369 22.241388 131.44873 22.228054 C 131.582077 22.214718 131.724319 22.194714 131.875458 22.168043 L 131.875458 23.941662 C 131.502045 24.048347 131.217575 24.115025 131.021988 24.141695 C 130.826385 24.168365 130.559692 24.181702 130.221863 24.181702 C 129.39505 24.181702 128.794968 23.888323 128.42157 23.301559 C 128.225983 22.990395 128.088181 22.550329 128.008179 21.981346 C 127.519196 22.621452 126.816864 23.177094 125.901161 23.648281 C 124.985451 24.119473 123.97641 24.355062 122.874008 24.355062 C 121.549339 24.355062 120.466957 23.95278 119.626816 23.148201 C 118.786674 22.343624 118.366615 21.336803 118.366615 20.127714 C 118.366615 18.803049 118.780006 17.776226 119.606812 17.047216 C 120.433617 16.318207 121.518227 15.869249 122.860672 15.700333 Z M 96.809532 4.285156 L 100.610146 4.285156 L 106.237724 20.84783 L 111.825287 4.285156 L 115.585899 4.285156 L 115.585899 23.874985 L 113.065491 23.874985 L 113.065491 12.313118 C 113.065491 11.913052 113.074379 11.250729 113.092163 10.326132 C 113.10994 9.401533 113.118835 8.410271 113.118835 7.352318 L 107.531265 23.874985 L 104.904175 23.874985 L 99.276596 7.352318 L 99.276596 7.952415 C 99.276596 8.432495 99.287712 9.163717 99.309937 10.146103 C 99.332161 11.128487 99.343277 11.850821 99.343277 12.313118 L 99.343277 23.874985 L 96.809532 23.874985 Z"/>
    <path id="path2" fill="#ffffff" fill-rule="evenodd" stroke="none" visibility="hidden" d="M 33.828125 4.351856 L 37.829231 4.351856 L 37.829231 20.057491 L 47.312366 20.057491 L 47.312366 23.5 L 33.828125 23.5 Z M 53.97031 19.563848 L 61.024208 19.563848 L 62.258312 23.5 L 66.597168 23.5 L 59.816082 4.351856 L 55.295353 4.351856 L 48.462296 23.5 L 52.645271 23.5 L 53.97031 19.563848 Z M 90 4.351856 L 85.933945 4.351856 L 83.374794 15.432838 L 82.790215 18.368713 L 82.205643 15.315922 L 79.932289 4.351856 L 75.710342 4.351856 L 73.553902 15.380875 L 72.995308 18.368713 L 72.449699 15.315922 L 69.916534 4.351856 L 65.66861 4.351856 L 71.098679 23.5 L 74.813988 23.5 L 77.12632 12.302103 L 77.801826 8.599783 L 78.477341 12.302103 L 80.789665 23.5 L 84.608902 23.5 L 90 4.351856 Z M 57.516747 8.729689 L 59.907017 16.264236 L 55.048531 16.264236 L 57.516747 8.729689 Z"/>
    <path id="path3" fill="#2d2d2d" fill-rule="evenodd" stroke="none" d="M 191.655075 9.097656 C 192.803528 9.097656 193.806122 9.380205 194.662888 9.945313 C 195.127731 10.264324 195.601685 10.729164 196.084763 11.339844 L 196.084763 9.494141 L 198.354294 9.494141 L 198.354294 22.810547 C 198.354294 24.669931 198.080856 26.137363 197.533981 27.212891 C 196.513153 29.199879 194.585434 30.193359 191.750778 30.193359 C 190.17395 30.193359 188.847794 29.840172 187.772263 29.133789 C 186.696747 28.427406 186.095184 27.322273 185.967575 25.818359 L 188.469528 25.818359 C 188.588028 26.474613 188.824997 26.980467 189.180466 27.335938 C 189.736465 27.882816 190.61145 28.15625 191.805466 28.15625 C 193.6922 28.15625 194.927216 27.490892 195.510544 26.160156 C 195.856903 25.376297 196.016403 23.977222 195.989059 21.962891 C 195.496872 22.710289 194.904434 23.266273 194.211716 23.630859 C 193.519012 23.995445 192.602997 24.177734 191.463669 24.177734 C 189.877731 24.177734 188.490051 23.614914 187.300583 22.489258 C 186.11113 21.363602 185.516403 19.501966 185.516403 16.904297 C 185.516403 14.452461 186.115677 12.538418 187.314255 11.162109 C 188.512833 9.785801 189.959763 9.097656 191.655075 9.097656 Z M 196.084763 16.617188 C 196.084763 14.803377 195.711075 13.458988 194.963669 12.583984 C 194.216278 11.708981 193.263809 11.271484 192.106247 11.271484 C 190.374466 11.271484 189.18959 12.082674 188.551559 13.705078 C 188.214325 14.570969 188.0457 15.705723 188.0457 17.109375 C 188.0457 18.759123 188.380661 20.014645 189.050583 20.875977 C 189.720505 21.737309 190.62056 22.167969 191.750778 22.167969 C 193.519012 22.167969 194.763153 21.370451 195.4832 19.775391 C 195.884247 18.873043 196.084763 17.820318 196.084763 16.617188 Z M 171.194839 9.357422 L 173.53273 9.357422 L 173.53273 11.435547 C 174.225449 10.578772 174.959167 9.963543 175.733902 9.589844 C 176.508652 9.216145 177.369965 9.029297 178.317886 9.029297 C 180.396027 9.029297 181.799652 9.753899 182.528824 11.203125 C 182.929871 11.996098 183.130386 13.130852 183.130386 14.607422 L 183.130386 24 L 180.628433 24 L 180.628433 14.771484 C 180.628433 13.87825 180.496277 13.158205 180.231949 12.611328 C 179.794449 11.699865 179.001495 11.244141 177.853043 11.244141 C 177.269714 11.244141 176.791199 11.303385 176.417496 11.421875 C 175.743011 11.622396 175.150574 12.023434 174.640152 12.625 C 174.229996 13.108076 173.963394 13.607094 173.840347 14.12207 C 173.7173 14.637047 173.655777 15.373043 173.655777 16.330078 L 173.655777 24 L 171.194839 24 Z M 165.254135 9.425781 L 167.756088 9.425781 L 167.756088 24 L 165.254135 24 Z M 165.254135 3.916016 L 167.756088 3.916016 L 167.756088 6.705078 L 165.254135 6.705078 Z M 150.139618 9.357422 L 153.325165 9.357422 L 156.688431 14.511719 L 160.092728 9.357422 L 163.086868 9.425781 L 158.151321 16.494141 L 163.305618 24 L 160.161087 24 L 156.524368 18.503906 L 152.99704 24 L 149.879852 24 L 155.034134 16.494141 Z M 136.419617 9.357422 L 139.605164 9.357422 L 142.968445 14.511719 L 146.372742 9.357422 L 149.366882 9.425781 L 144.431335 16.494141 L 149.585632 24 L 146.441101 24 L 142.804382 18.503906 L 139.277039 24 L 136.159851 24 L 141.314148 16.494141 Z M 124.408592 20.103516 C 124.408592 20.814457 124.668358 21.374998 125.187889 21.785156 C 125.707428 22.195314 126.322655 22.400391 127.033592 22.400391 C 127.899483 22.400391 128.738007 22.199871 129.549225 21.798828 C 130.916412 21.133461 131.600006 20.044277 131.600006 18.53125 L 131.600006 16.548828 C 131.299225 16.740234 130.91185 16.899738 130.437897 17.027344 C 129.963928 17.154949 129.499084 17.246094 129.043365 17.300781 L 127.553123 17.492188 C 126.659889 17.610678 125.989975 17.797523 125.543358 18.052734 C 124.786842 18.481121 124.408592 19.164709 124.408592 20.103516 Z M 130.369537 15.126953 C 130.934631 15.054035 131.312897 14.817059 131.504303 14.416016 C 131.613678 14.197264 131.668365 13.882814 131.668365 13.472656 C 131.668365 12.634109 131.369858 12.025719 130.772858 11.647461 C 130.175842 11.269203 129.32135 11.080078 128.209381 11.080078 C 126.92421 11.080078 126.012764 11.42643 125.474998 12.119141 C 125.174217 12.501955 124.978256 13.071611 124.887108 13.828125 L 122.590233 13.828125 C 122.635811 12.023428 123.221413 10.767908 124.347069 10.061523 C 125.472725 9.355139 126.778381 9.001953 128.264069 9.001953 C 129.986725 9.001953 131.385803 9.330074 132.461334 9.986328 C 133.52774 10.642582 134.060944 11.663404 134.060944 13.048828 L 134.060944 21.484375 C 134.060944 21.739586 134.113342 21.94466 134.21817 22.099609 C 134.322983 22.254559 134.544006 22.332031 134.881256 22.332031 C 134.990631 22.332031 135.113678 22.325195 135.250397 22.311523 C 135.387115 22.297852 135.532944 22.277344 135.687897 22.25 L 135.687897 24.068359 C 135.305084 24.177734 135.013412 24.246094 134.812897 24.273438 C 134.612366 24.300781 134.338928 24.314453 133.992584 24.314453 C 133.144928 24.314453 132.529694 24.013676 132.146881 23.412109 C 131.94635 23.093098 131.805084 22.64193 131.723053 22.058594 C 131.221741 22.714848 130.501694 23.284504 129.562897 23.767578 C 128.624084 24.250652 127.589592 24.492188 126.459373 24.492188 C 125.101295 24.492188 123.991608 24.079758 123.130272 23.254883 C 122.268944 22.430008 121.83828 21.397793 121.83828 20.158203 C 121.83828 18.800123 122.262108 17.747398 123.109764 17 C 123.957428 16.252602 125.069397 15.792318 126.445702 15.619141 Z M 99.737419 3.916016 L 103.633904 3.916016 L 109.403435 20.896484 L 115.13195 3.916016 L 118.987419 3.916016 L 118.987419 24 L 116.403435 24 L 116.403435 12.146484 C 116.403435 11.736326 116.412552 11.057297 116.430779 10.109375 C 116.449013 9.161453 116.458122 8.145187 116.458122 7.060547 L 110.729607 24 L 108.036247 24 L 102.266716 7.060547 L 102.266716 7.675781 C 102.266716 8.167971 102.278114 8.917639 102.300896 9.924805 C 102.323685 10.931971 102.335075 11.672523 102.335075 12.146484 L 102.335075 24 L 99.737419 24 Z"/>
    <path id="path4" fill="#000000" fill-rule="evenodd" stroke="none" d="M 49.677734 17.492188 L 48.980469 24 L 32.519531 24 L 32.519531 23.494141 L 33.134766 23.494141 C 33.672531 23.494141 34.105469 23.398438 34.433594 23.207031 C 34.670574 23.079426 34.852863 22.86068 34.980469 22.550781 C 35.08073 22.332031 35.130859 21.757816 35.130859 20.828125 L 35.130859 8.632813 C 35.130859 7.684891 35.08073 7.092449 34.980469 6.855469 C 34.880207 6.618488 34.67741 6.411133 34.37207 6.233398 C 34.06673 6.055664 33.654297 5.966797 33.134766 5.966797 L 32.519531 5.966797 L 32.519531 5.460938 L 42.404297 5.460938 L 42.404297 5.966797 L 41.597656 5.966797 C 41.059895 5.966797 40.626953 6.062498 40.298828 6.253906 C 40.061848 6.381512 39.875 6.60026 39.738281 6.910156 C 39.63802 7.128908 39.587891 7.703121 39.587891 8.632813 L 39.587891 20.445313 C 39.587891 21.393234 39.642578 21.99707 39.751953 22.256836 C 39.861328 22.516602 40.07552 22.710285 40.394531 22.837891 C 40.622398 22.919922 41.173824 22.960938 42.048828 22.960938 L 43.59375 22.960938 C 44.578129 22.960938 45.398434 22.787762 46.054688 22.441406 C 46.710941 22.095051 47.27832 21.54818 47.756836 20.800781 C 48.235352 20.053383 48.688801 18.950527 49.117188 17.492188 Z M 94.986877 5.966797 L 94.986877 5.460938 L 90.174377 5.460938 L 90.174377 5.966797 C 90.894432 5.985025 91.382057 6.101236 91.637268 6.31543 C 91.892471 6.529623 92.020081 6.823566 92.020081 7.197266 C 92.020081 7.452475 91.98362 7.730467 91.910706 8.03125 C 91.837784 8.332033 91.641823 8.892574 91.322815 9.712891 L 88.301331 17.65625 L 84.924377 8.878906 C 84.514221 7.803381 84.309143 7.160809 84.309143 6.951172 C 84.309143 6.759764 84.363831 6.588867 84.473206 6.438477 C 84.582581 6.288086 84.732971 6.18099 84.924377 6.117188 C 85.197815 6.026041 85.648987 5.975912 86.277893 5.966797 L 86.277893 5.460938 L 77.295471 5.460938 L 77.295471 5.966797 C 77.86969 5.966797 78.304909 6.04427 78.601135 6.199219 C 78.897354 6.354168 79.159401 6.611652 79.387268 6.97168 C 79.615128 7.331707 79.93869 8.049475 80.357971 9.125 L 81.123596 11.09375 L 78.211487 18.121094 L 74.574768 9.125 C 74.128143 8.003901 73.904846 7.270184 73.904846 6.923828 C 73.904846 6.659504 74.01194 6.438477 74.226135 6.260742 C 74.440323 6.083008 74.870987 5.985025 75.518127 5.966797 L 75.518127 5.460938 L 67.479065 5.460938 L 67.479065 5.966797 C 68.062393 6.021484 68.477112 6.208332 68.723206 6.527344 C 68.969299 6.846355 69.402237 7.76692 70.022034 9.289063 L 76.11969 24.423828 L 76.625549 24.423828 L 81.684143 12.474609 L 86.277893 24.423828 L 86.811096 24.423828 L 92.621643 9.125 C 93.141174 7.821608 93.428284 7.115234 93.482971 7.005859 C 93.66526 6.668617 93.874893 6.417969 94.111877 6.253906 C 94.348854 6.089844 94.640518 5.994141 94.986877 5.966797 Z M 55.495392 18.722656 L 62.04422 18.722656 L 63.028595 21.033203 C 63.283802 21.634769 63.420521 21.976563 63.438751 22.058594 C 63.493439 22.231771 63.520782 22.400391 63.520782 22.564453 C 63.520782 22.837891 63.420521 23.047525 63.220001 23.193359 C 62.928329 23.393881 62.422478 23.494141 61.702423 23.494141 L 61.333282 23.494141 L 61.333282 24 L 70.302032 24 L 70.302032 23.494141 C 69.736923 23.448566 69.299423 23.284508 68.989532 23.001953 C 68.579376 22.628254 68.05529 21.721361 67.417267 20.28125 L 60.73172 5.078125 L 60.471954 5.078125 L 53.841095 19.871094 C 53.212185 21.283861 52.683544 22.215818 52.255157 22.666992 C 51.826767 23.118166 51.2799 23.393879 50.614532 23.494141 L 50.614532 24 L 56.780548 24 L 56.780548 23.494141 C 55.814396 23.421223 55.208282 23.31185 54.962189 23.166016 C 54.542915 22.919922 54.333282 22.537113 54.333282 22.017578 C 54.333282 21.625648 54.460884 21.12891 54.716095 20.527344 L 55.495392 18.722656 Z M 58.817657 11.326172 L 61.579376 17.710938 L 55.973907 17.710938 L 58.817657 11.326172 Z"/>
</svg>
